Normalized EMG Linear Envelopes
nRows=59
nColumns=17

endheader
time	        VM	        VL	        RF	       GRA	        TA	   ADDLONG	   SEMIMEM	      BFLH	        GM	        GL	       TFL	   GLUTMAX	   GLUTMED	      PIRI	    OBTINT	        QF	
3.591	  0.231708	  0.157395	  0.092542	  0.378316	  0.212163	  0.099994	  0.472678	  0.569521	  0.358371	  0.158453	  0.047460	  0.250829	  0.288576	  0.000000	  0.000000	  0.000000	
3.5915	  0.229200	  0.156236	  0.089397	  0.383364	  0.211536	  0.101545	  0.479749	  0.575073	  0.361691	  0.160688	  0.047418	  0.252412	  0.289826	  0.000000	  0.000000	  0.000000	
3.592	  0.226705	  0.155095	  0.086314	  0.388429	  0.210938	  0.103120	  0.486831	  0.580589	  0.364996	  0.162923	  0.047385	  0.253979	  0.291068	  0.000000	  0.000000	  0.000000	
3.5925	  0.224226	  0.153972	  0.083292	  0.393508	  0.210370	  0.104718	  0.493924	  0.586070	  0.368285	  0.165157	  0.047361	  0.255531	  0.292303	  0.000000	  0.000000	  0.000000	
3.593	  0.221762	  0.152867	  0.080331	  0.398600	  0.209832	  0.106338	  0.501026	  0.591518	  0.371559	  0.167390	  0.047345	  0.257066	  0.293528	  0.000000	  0.000000	  0.000000	
3.5935	  0.219314	  0.151781	  0.077431	  0.403702	  0.209326	  0.107978	  0.508135	  0.596934	  0.374817	  0.169619	  0.047337	  0.258584	  0.294744	  0.000000	  0.000000	  0.000000	
3.594	  0.216884	  0.150714	  0.074591	  0.408814	  0.208852	  0.109638	  0.515251	  0.602317	  0.378059	  0.171846	  0.047337	  0.260086	  0.295948	  0.000000	  0.000000	  0.000000	
3.5945	  0.214472	  0.149668	  0.071811	  0.413934	  0.208412	  0.111317	  0.522371	  0.607669	  0.381286	  0.174068	  0.047344	  0.261571	  0.297140	  0.000000	  0.000000	  0.000000	
3.595	  0.212079	  0.148641	  0.069091	  0.419059	  0.208006	  0.113014	  0.529493	  0.612990	  0.384497	  0.176285	  0.047358	  0.263039	  0.298320	  0.000000	  0.000000	  0.000000	
3.5955	  0.209707	  0.147636	  0.066430	  0.424190	  0.207636	  0.114727	  0.536617	  0.618281	  0.387693	  0.178497	  0.047378	  0.264490	  0.299485	  0.000000	  0.000000	  0.000000	
3.596	  0.207355	  0.146652	  0.063828	  0.429324	  0.207301	  0.116455	  0.543740	  0.623543	  0.390874	  0.180703	  0.047404	  0.265923	  0.300636	  0.000000	  0.000000	  0.000000	
3.5965	  0.205025	  0.145690	  0.061284	  0.434460	  0.207003	  0.118198	  0.550860	  0.628776	  0.394040	  0.182902	  0.047436	  0.267340	  0.301771	  0.000000	  0.000000	  0.000000	
3.597	  0.202717	  0.144750	  0.058798	  0.439599	  0.206742	  0.119954	  0.557975	  0.633980	  0.397192	  0.185094	  0.047472	  0.268739	  0.302890	  0.000000	  0.000000	  0.000000	
3.5975	  0.200432	  0.143833	  0.056370	  0.444737	  0.206520	  0.121722	  0.565083	  0.639157	  0.400330	  0.187277	  0.047514	  0.270123	  0.303990	  0.000000	  0.000000	  0.000000	
3.598	  0.198171	  0.142938	  0.053999	  0.449875	  0.206336	  0.123500	  0.572181	  0.644306	  0.403453	  0.189451	  0.047559	  0.271489	  0.305073	  0.000000	  0.000000	  0.000000	
3.5985	  0.195936	  0.142067	  0.051684	  0.455011	  0.206192	  0.125288	  0.579269	  0.649427	  0.406562	  0.191616	  0.047609	  0.272840	  0.306136	  0.000000	  0.000000	  0.000000	
3.599	  0.193726	  0.141219	  0.049425	  0.460145	  0.206088	  0.127083	  0.586343	  0.654520	  0.409657	  0.193770	  0.047662	  0.274175	  0.307179	  0.000000	  0.000000	  0.000000	
3.5995	  0.191543	  0.140395	  0.047222	  0.465275	  0.206024	  0.128886	  0.593400	  0.659585	  0.412737	  0.195913	  0.047719	  0.275495	  0.308201	  0.000000	  0.000000	  0.000000	
3.6	  0.189388	  0.139595	  0.045074	  0.470402	  0.206002	  0.130694	  0.600440	  0.664621	  0.415802	  0.198044	  0.047779	  0.276798	  0.309202	  0.000000	  0.000000	  0.000000	
3.6005	  0.187262	  0.138819	  0.042981	  0.475525	  0.206021	  0.132506	  0.607458	  0.669630	  0.418852	  0.200162	  0.047841	  0.278086	  0.310181	  0.000000	  0.000000	  0.000000	
3.601	  0.185165	  0.138067	  0.040942	  0.480643	  0.206083	  0.134322	  0.614454	  0.674609	  0.421886	  0.202266	  0.047905	  0.279359	  0.311135	  0.000000	  0.000000	  0.000000	
3.6015	  0.183098	  0.137341	  0.038956	  0.485756	  0.206187	  0.136140	  0.621424	  0.679561	  0.424904	  0.204355	  0.047972	  0.280616	  0.312066	  0.000000	  0.000000	  0.000000	
3.602	  0.181064	  0.136639	  0.037023	  0.490863	  0.206335	  0.137958	  0.628366	  0.684484	  0.427905	  0.206428	  0.048040	  0.281858	  0.312971	  0.000000	  0.000000	  0.000000	
3.6025	  0.179061	  0.135963	  0.035142	  0.495964	  0.206526	  0.139775	  0.635276	  0.689379	  0.430888	  0.208484	  0.048109	  0.283085	  0.313851	  0.000000	  0.000000	  0.000000	
3.603	  0.177092	  0.135312	  0.033313	  0.501058	  0.206761	  0.141591	  0.642153	  0.694246	  0.433853	  0.210522	  0.048179	  0.284296	  0.314704	  0.000000	  0.000000	  0.000000	
3.6035	  0.175158	  0.134687	  0.031536	  0.506144	  0.207040	  0.143403	  0.648993	  0.699086	  0.436800	  0.212540	  0.048250	  0.285494	  0.315531	  0.000000	  0.000000	  0.000000	
3.604	  0.173258	  0.134089	  0.029809	  0.511222	  0.207364	  0.145211	  0.655793	  0.703897	  0.439728	  0.214538	  0.048321	  0.286677	  0.316329	  0.000000	  0.000000	  0.000000	
3.6045	  0.171394	  0.133517	  0.028132	  0.516289	  0.207733	  0.147014	  0.662552	  0.708679	  0.442635	  0.216515	  0.048393	  0.287846	  0.317099	  0.000000	  0.000000	  0.000000	
3.605	  0.169568	  0.132972	  0.026504	  0.521346	  0.208146	  0.148809	  0.669266	  0.713431	  0.445522	  0.218468	  0.048464	  0.289001	  0.317840	  0.000000	  0.000000	  0.000000	
3.6055	  0.167779	  0.132455	  0.024925	  0.526390	  0.208605	  0.150596	  0.675934	  0.718154	  0.448386	  0.220398	  0.048534	  0.290142	  0.318551	  0.000000	  0.000000	  0.000000	
3.606	  0.166028	  0.131966	  0.023395	  0.531420	  0.209108	  0.152374	  0.682553	  0.722847	  0.451228	  0.222303	  0.048604	  0.291270	  0.319232	  0.000000	  0.000000	  0.000000	
3.6065	  0.164316	  0.131505	  0.021912	  0.536435	  0.209657	  0.154140	  0.689121	  0.727508	  0.454046	  0.224181	  0.048672	  0.292384	  0.319881	  0.000000	  0.000000	  0.000000	
3.607	  0.162645	  0.131073	  0.020477	  0.541433	  0.210251	  0.155895	  0.695638	  0.732137	  0.456839	  0.226033	  0.048739	  0.293484	  0.320498	  0.000000	  0.000000	  0.000000	
3.6075	  0.161013	  0.130672	  0.019088	  0.546413	  0.210891	  0.157637	  0.702099	  0.736733	  0.459606	  0.227856	  0.048805	  0.294571	  0.321083	  0.000000	  0.000000	  0.000000	
3.608	  0.159423	  0.130301	  0.017744	  0.551372	  0.211575	  0.159364	  0.708504	  0.741295	  0.462346	  0.229651	  0.048868	  0.295644	  0.321635	  0.000000	  0.000000	  0.000000	
3.6085	  0.157875	  0.129961	  0.016446	  0.556310	  0.212305	  0.161076	  0.714850	  0.745821	  0.465059	  0.231414	  0.048929	  0.296703	  0.322153	  0.000000	  0.000000	  0.000000	
3.609	  0.156370	  0.129653	  0.015193	  0.561225	  0.213079	  0.162770	  0.721137	  0.750311	  0.467742	  0.233146	  0.048987	  0.297748	  0.322636	  0.000000	  0.000000	  0.000000	
3.6095	  0.154907	  0.129377	  0.013983	  0.566114	  0.213898	  0.164447	  0.727361	  0.754763	  0.470395	  0.234844	  0.049043	  0.298778	  0.323083	  0.000000	  0.000000	  0.000000	
3.61	  0.153488	  0.129134	  0.012817	  0.570977	  0.214762	  0.166104	  0.733523	  0.759177	  0.473018	  0.236508	  0.049096	  0.299794	  0.323495	  0.000000	  0.000000	  0.000000	
3.6105	  0.152113	  0.128926	  0.011694	  0.575810	  0.215669	  0.167740	  0.739619	  0.763550	  0.475607	  0.238136	  0.049147	  0.300796	  0.323870	  0.000000	  0.000000	  0.000000	
3.611	  0.150783	  0.128751	  0.010613	  0.580613	  0.216620	  0.169354	  0.745648	  0.767884	  0.478163	  0.239727	  0.049194	  0.301783	  0.324207	  0.000000	  0.000000	  0.000000	
3.6115	  0.149498	  0.128612	  0.009574	  0.585383	  0.217615	  0.170944	  0.751607	  0.772178	  0.480683	  0.241279	  0.049238	  0.302755	  0.324507	  0.000000	  0.000000	  0.000000	
3.612	  0.148259	  0.128509	  0.008575	  0.590119	  0.218653	  0.172510	  0.757494	  0.776431	  0.483167	  0.242791	  0.049278	  0.303712	  0.324767	  0.000000	  0.000000	  0.000000	
3.6125	  0.147066	  0.128442	  0.007617	  0.594818	  0.219733	  0.174048	  0.763306	  0.780643	  0.485612	  0.244261	  0.049315	  0.304654	  0.324989	  0.000000	  0.000000	  0.000000	
3.613	  0.145919	  0.128413	  0.006698	  0.599479	  0.220854	  0.175559	  0.769041	  0.784816	  0.488018	  0.245688	  0.049349	  0.305580	  0.325171	  0.000000	  0.000000	  0.000000	
3.6135	  0.144819	  0.128421	  0.005818	  0.604100	  0.222017	  0.177041	  0.774694	  0.788948	  0.490383	  0.247071	  0.049379	  0.306489	  0.325312	  0.000000	  0.000000	  0.000000	
3.614	  0.143767	  0.128469	  0.004977	  0.608676	  0.223220	  0.178491	  0.780265	  0.793039	  0.492706	  0.248410	  0.049406	  0.307382	  0.325413	  0.000000	  0.000000	  0.000000	
3.6145	  0.142762	  0.128555	  0.004173	  0.613208	  0.224463	  0.179910	  0.785747	  0.797090	  0.494987	  0.249702	  0.049429	  0.308258	  0.325472	  0.000000	  0.000000	  0.000000	
3.615	  0.141806	  0.128682	  0.003407	  0.617690	  0.225746	  0.181295	  0.791140	  0.801100	  0.497224	  0.250948	  0.049449	  0.309116	  0.325490	  0.000000	  0.000000	  0.000000	
3.6155	  0.140898	  0.128848	  0.002677	  0.622121	  0.227066	  0.182645	  0.796438	  0.805070	  0.499416	  0.252147	  0.049465	  0.309957	  0.325466	  0.000000	  0.000000	  0.000000	
3.616	  0.140038	  0.129056	  0.001983	  0.626498	  0.228424	  0.183959	  0.801639	  0.808997	  0.501564	  0.253298	  0.049478	  0.310780	  0.325398	  0.000000	  0.000000	  0.000000	
3.6165	  0.139228	  0.129306	  0.001324	  0.630817	  0.229818	  0.185235	  0.806739	  0.812883	  0.503665	  0.254402	  0.049489	  0.311584	  0.325288	  0.000000	  0.000000	  0.000000	
3.617	  0.138467	  0.129597	  0.000700	  0.635075	  0.231249	  0.186472	  0.811735	  0.816725	  0.505720	  0.255456	  0.049496	  0.312369	  0.325134	  0.000000	  0.000000	  0.000000	
3.6175	  0.137754	  0.129931	  0.000110	  0.639271	  0.232714	  0.187669	  0.816624	  0.820525	  0.507728	  0.256462	  0.049501	  0.313136	  0.324935	  0.000000	  0.000000	  0.000000	
3.618	  0.137092	  0.130307	  0.000000	  0.643400	  0.234213	  0.188825	  0.821402	  0.824280	  0.509688	  0.257419	  0.049503	  0.313882	  0.324692	  0.000000	  0.000000	  0.000000	
3.6185	  0.136478	  0.130727	  0.000000	  0.647460	  0.235745	  0.189939	  0.826065	  0.827990	  0.511598	  0.258327	  0.049502	  0.314608	  0.324403	  0.000000	  0.000000	  0.000000	
3.619	  0.135915	  0.131190	  0.000000	  0.651448	  0.237309	  0.191010	  0.830611	  0.831654	  0.513460	  0.259186	  0.049499	  0.315314	  0.324069	  0.000000	  0.000000	  0.000000	
3.6195	  0.135401	  0.131697	  0.000000	  0.655361	  0.238903	  0.192037	  0.835035	  0.835272	  0.515271	  0.259996	  0.049495	  0.315998	  0.323688	  0.000000	  0.000000	  0.000000	
3.62	  0.134937	  0.132248	  0.000000	  0.659195	  0.240528	  0.193019	  0.839333	  0.838843	  0.517030	  0.260758	  0.049488	  0.316660	  0.323261	  0.000000	  0.000000	  0.000000	
